<svg xmlns="http://www.w3.org/2000/svg" viewBox="0 0 900 506" role="img" aria-label="Mercedes coupe">
    <defs>
        <linearGradient id="bg" x1="0" x2="1" y1="0" y2="1">
            <stop offset="0" stop-color="#f5f7fa"/>
            <stop offset="1" stop-color="#d7dee8"/>
        </linearGradient>
        <linearGradient id="body" x1="0" x2="1">
            <stop offset="0" stop-color="#082f3a"/>
            <stop offset=".6" stop-color="#0f8f9b"/>
            <stop offset="1" stop-color="#e8fbff"/>
        </linearGradient>
    </defs>
    <rect width="900" height="506" fill="url(#bg)"/>
    <path d="M86 340h728" stroke="#c4ced8" stroke-width="3"/>
    <path d="M137 316c35-63 90-98 166-106l122-13c63-7 126 8 179 42l82 53c40 1 73 34 73 74v20H96v-27c0-22 18-41 41-43z" fill="url(#body)"/>
    <path d="M347 236h104v62H248l31-30c19-20 41-31 68-32zM484 236h79c34 0 67 10 95 29l49 33H484z" fill="#ddedf2"/>
    <circle cx="252" cy="377" r="58" fill="#0d1114"/>
    <circle cx="252" cy="377" r="26" fill="#e8eef4"/>
    <circle cx="650" cy="377" r="58" fill="#0d1114"/>
    <circle cx="650" cy="377" r="26" fill="#e8eef4"/>
    <rect x="118" y="321" width="78" height="14" rx="7" fill="#fff"/>
    <rect x="704" y="321" width="60" height="14" rx="7" fill="#ffffff"/>
</svg>
