<svg xmlns="http://www.w3.org/2000/svg" viewBox="0 0 960 660" role="img" aria-label="Mercedes showroom interior">
    <defs>
        <linearGradient id="wall" x1="0" x2="1" y1="0" y2="1">
            <stop offset="0" stop-color="#1b1f24"/>
            <stop offset="1" stop-color="#eef2f6"/>
        </linearGradient>
        <linearGradient id="floor" x1="0" x2="1">
            <stop offset="0" stop-color="#c9d1da"/>
            <stop offset="1" stop-color="#f5f7f9"/>
        </linearGradient>
        <linearGradient id="paint" x1="0" x2="1">
            <stop offset="0" stop-color="#111418"/>
            <stop offset="0.55" stop-color="#2c333b"/>
            <stop offset="1" stop-color="#f4f6f8"/>
        </linearGradient>
    </defs>
    <rect width="960" height="660" fill="url(#wall)"/>
    <rect y="410" width="960" height="250" fill="url(#floor)"/>
    <path d="M78 416h804" stroke="#fff" stroke-opacity=".55" stroke-width="3"/>
    <rect x="94" y="82" width="230" height="210" rx="10" fill="#f9fbfd" opacity=".88"/>
    <rect x="368" y="82" width="230" height="210" rx="10" fill="#f9fbfd" opacity=".72"/>
    <rect x="642" y="82" width="224" height="210" rx="10" fill="#f9fbfd" opacity=".84"/>
    <path d="M156 420c24-75 75-121 153-139l122-28c46-11 94-16 141-16h91c57 0 112 20 155 57l66 57c27 5 48 29 48 57v50H46v-16c0-13 9-24 22-27z" fill="url(#paint)"/>
    <path d="M336 293h157v92H214l51-56c19-23 43-36 71-36zM530 293h128c42 0 82 16 112 45l47 47H530z" fill="#d7e0e8"/>
    <path d="M155 391h96" stroke="#00adef" stroke-width="16" stroke-linecap="round"/>
    <path d="M791 391h80" stroke="#fff" stroke-width="16" stroke-linecap="round"/>
    <circle cx="260" cy="459" r="72" fill="#0d0f12"/>
    <circle cx="260" cy="459" r="35" fill="#dce3ea"/>
    <circle cx="716" cy="459" r="72" fill="#0d0f12"/>
    <circle cx="716" cy="459" r="35" fill="#dce3ea"/>
    <path d="M62 540c202 42 582 41 836-7" stroke="#aeb8c4" stroke-width="2" opacity=".7"/>
</svg>
